<svg width="85" height="41" viewBox="0 0 85 41" fill="none" xmlns="http://www.w3.org/2000/svg">
<path d="M18.2476 18.8233V25.9803C18.2559 26.2229 18.2142 26.4646 18.1251 26.6904C18.036 26.9161 17.9014 27.1211 17.7296 27.2926C17.5579 27.4641 17.3527 27.5984 17.1268 27.6871C16.9009 27.7758 16.6591 27.8171 16.4166 27.8084C15.9522 27.7678 15.5183 27.5601 15.1953 27.224C14.8723 26.8878 14.6821 26.446 14.6601 25.9803C13.0856 27.3133 11.3172 27.8233 9.24461 27.8233C4.0826 27.8233 0.000109703 23.9823 0.000109703 18.8233C-0.00583301 17.6064 0.229722 16.4004 0.693131 15.2751C1.15654 14.1499 1.8386 13.1277 2.6998 12.2679C3.56099 11.4081 4.58422 10.7277 5.71022 10.2661C6.83622 9.80451 8.04261 9.5709 9.25953 9.57881C14.4036 9.5639 18.2476 13.6613 18.2476 18.8233ZM14.6691 18.8233C14.6691 15.7488 12.3281 13.1573 9.25356 13.1573C7.75757 13.1789 6.3289 13.7828 5.27096 14.8407C4.21302 15.8987 3.60915 17.3273 3.58757 18.8233C3.58757 21.8949 6.18498 24.2388 9.25356 24.2388C9.96777 24.2514 10.6772 24.1198 11.3394 23.852C12.0016 23.5842 12.603 23.1856 13.1077 22.6801C13.6124 22.1745 14.01 21.5725 14.2767 20.9098C14.5435 20.2471 14.6738 19.5375 14.6601 18.8233H14.6691Z" fill="white"/>
<path d="M20.3667 26.0666V2.2396C20.3857 1.77184 20.5849 1.32956 20.9225 1.00532C21.2602 0.681071 21.7102 0.5 22.1784 0.5C22.6465 0.5 23.0965 0.681071 23.4342 1.00532C23.7718 1.32956 23.971 1.77184 23.99 2.2396V26.0666C23.9999 26.3107 23.9604 26.5542 23.8738 26.7827C23.7872 27.0111 23.6554 27.2197 23.4862 27.3959C23.3169 27.5721 23.1139 27.7123 22.8891 27.8081C22.6644 27.9038 22.4226 27.9532 22.1784 27.9532C21.9341 27.9532 21.6923 27.9038 21.4676 27.8081C21.2428 27.7123 21.0398 27.5721 20.8706 27.3959C20.7013 27.2197 20.5695 27.0111 20.4829 26.7827C20.3963 26.5542 20.3568 26.3107 20.3667 26.0666Z" fill="white"/>
<path d="M44.4831 18.8232V25.9803C44.4919 26.2227 44.4506 26.4643 44.3618 26.6901C44.273 26.9158 44.1387 27.1209 43.9672 27.2924C43.7956 27.4639 43.5906 27.5982 43.3649 27.687C43.1391 27.7758 42.8975 27.8171 42.6551 27.8083C42.1904 27.7683 41.7562 27.5609 41.4331 27.2246C41.11 26.8883 40.92 26.4461 40.8986 25.9803C39.3241 27.3133 37.5587 27.8232 35.4712 27.8232C30.3122 27.8232 26.2267 23.9823 26.2267 18.8232C26.2204 17.6075 26.4552 16.4025 26.9175 15.2781C27.3798 14.1536 28.0605 13.132 28.9202 12.2723C29.7799 11.4126 30.8016 10.7319 31.926 10.2696C33.0505 9.80721 34.2554 9.57241 35.4712 9.57874C40.6421 9.56383 44.4831 13.6612 44.4831 18.8232ZM40.9046 18.8232C40.9046 15.7487 38.5606 13.1573 35.4861 13.1573C33.9903 13.1796 32.5621 13.7837 31.5043 14.8415C30.4466 15.8993 29.8424 17.3275 29.8201 18.8232C29.8201 21.8948 32.4205 24.2387 35.4861 24.2387C36.2007 24.2517 36.9106 24.1204 37.5733 23.8528C38.236 23.5852 38.838 23.1868 39.3432 22.6812C39.8485 22.1757 40.2466 21.5735 40.5139 20.9107C40.7811 20.2478 40.912 19.5378 40.8986 18.8232H40.9046Z" fill="white"/>
<path d="M51.3535 12.8233V30.9872C51.3605 32.3007 51.1068 33.6024 50.6072 34.8171C50.1076 36.0318 49.372 37.1353 48.443 38.0638C47.4042 39.0896 46.1575 39.8808 44.7869 40.3838C44.5733 40.4632 44.3469 40.5026 44.119 40.5001C43.6622 40.4964 43.2213 40.3318 42.874 40.0351C42.5266 39.7385 42.295 39.3288 42.2198 38.8783C42.1447 38.4277 42.2308 37.965 42.4631 37.5717C42.6953 37.1784 43.0589 36.8795 43.4897 36.7278C44.3152 36.4164 45.0652 35.9336 45.6905 35.3113C46.266 34.7503 46.72 34.077 47.0243 33.3331C47.3285 32.5892 47.4764 31.7907 47.4589 30.9872V12.8233C47.4589 12.3068 47.6641 11.8115 48.0293 11.4463C48.3944 11.0811 48.8898 10.876 49.4062 10.876C49.9227 10.876 50.418 11.0811 50.7832 11.4463C51.1484 11.8115 51.3535 12.3068 51.3535 12.8233Z" fill="white"/>
<path d="M48.0108 6.41481C47.6566 6.04417 47.459 5.55124 47.459 5.03858C47.459 4.52591 47.6566 4.03298 48.0108 3.66234C48.3795 3.30023 48.8693 3.08772 49.3856 3.06592C49.9046 3.07931 50.3983 3.29304 50.7633 3.66234C50.9537 3.83739 51.1051 4.05049 51.2079 4.28783C51.3106 4.52517 51.3624 4.78145 51.3597 5.04007C51.3623 5.29823 51.3106 5.55406 51.2078 5.79091C51.105 6.02776 50.9536 6.24034 50.7633 6.41481C50.3938 6.77171 49.8993 6.96975 49.3856 6.9665C48.8743 6.96196 48.3834 6.76499 48.0108 6.41481Z" fill="white"/>
<path d="M83.7131 25.2227C83.7124 25.3825 83.6995 25.5421 83.6744 25.6999C83.5931 26.1789 83.3804 26.6259 83.06 26.9911C82.8636 27.2184 82.6211 27.4013 82.3486 27.5278C82.0762 27.6543 81.7799 27.7214 81.4795 27.7247H56.5462C55.4577 27.7247 54.5512 26.851 54.3514 25.6999C54.3263 25.5421 54.3133 25.3825 54.3126 25.2227C54.3064 24.5723 54.5387 23.9421 54.9657 23.4514C55.162 23.224 55.4045 23.0409 55.677 22.9144C55.9495 22.788 56.2458 22.7209 56.5462 22.7178H81.4795C82.7141 22.7178 83.7131 23.839 83.7131 25.2227Z" fill="white"/>
<path d="M83.2684 24.9039C83.4418 25.1113 83.551 25.3647 83.5828 25.6332C83.6146 25.9017 83.5675 26.1736 83.4474 26.4158C83.3458 26.6313 83.2154 26.8319 83.0597 27.0122C82.8633 27.2395 82.6208 27.4224 82.3483 27.5489C82.0758 27.6753 81.7796 27.7425 81.4792 27.7458H56.5459C56.1278 27.7352 55.7213 27.6063 55.3734 27.374C55.0256 27.1418 54.7507 26.8157 54.5807 26.4337C54.4617 26.196 54.4133 25.9293 54.4413 25.665C54.4693 25.4007 54.5726 25.15 54.7387 24.9426C54.8675 24.7923 55.0271 24.6715 55.2067 24.5881C55.3862 24.5048 55.5815 24.4609 55.7795 24.4595H82.2366C82.4301 24.4579 82.6217 24.4965 82.7993 24.573C82.977 24.6495 83.1367 24.7622 83.2684 24.9039Z" fill="white"/>
<path d="M74.3906 7.52101L75.5417 4.38086L76.985 4.9236C77.665 5.17112 77.999 5.73473 77.7544 6.41465C77.5099 7.09457 76.8866 7.30928 76.2067 7.05282L75.0974 6.64725L74.7246 7.66415L74.3906 7.52101ZM75.7624 4.8073L75.2077 6.32221L76.2902 6.71286C76.8449 6.91564 77.2206 6.79934 77.4175 6.26256C77.6143 5.72579 77.3996 5.40074 76.8449 5.19795L75.7624 4.8073Z" fill="white"/>
<path d="M77.5625 8.80034L79.5426 6.11646L80.8607 7.08564C81.4243 7.50015 81.5973 8.06675 81.2335 8.56178C80.8696 9.0568 80.3597 9.05084 79.8498 8.69895L79.8349 8.71684C79.8981 8.80113 79.9428 8.89786 79.9659 9.00067C79.989 9.10347 79.9901 9.21001 79.9691 9.31326L79.8707 10.5061L79.5396 10.2646L79.6351 9.13136C79.6589 8.97444 79.6332 8.814 79.5615 8.67237C79.4899 8.53073 79.376 8.41494 79.2355 8.3411L78.6569 7.90571L77.8458 9.00611L77.5625 8.80034ZM78.8269 7.67907L79.8557 8.43355C80.2822 8.74965 80.6311 8.73176 80.9114 8.36198C81.1917 7.9922 81.0933 7.64627 80.6669 7.33315L79.6351 6.5757L78.8269 7.67907Z" fill="white"/>
<path d="M81.6243 9.88293C81.7983 9.73645 82.0013 9.62836 82.2199 9.5657C82.4386 9.50305 82.668 9.48725 82.8932 9.51934C83.1184 9.55143 83.3342 9.63068 83.5267 9.75191C83.7191 9.87315 83.8838 10.0336 84.01 10.2229C84.1545 10.3996 84.2599 10.6049 84.3193 10.8252C84.3788 11.0456 84.3908 11.2761 84.3548 11.5014C84.3187 11.7268 84.2353 11.942 84.1101 12.1328C83.9849 12.3236 83.8207 12.4858 83.6283 12.6086C83.4537 12.7546 83.2502 12.8621 83.0312 12.9241C82.8122 12.986 82.5826 13.001 82.3573 12.9681C82.1321 12.9352 81.9164 12.855 81.7243 12.7329C81.5322 12.6109 81.3681 12.4496 81.2426 12.2597C81.0992 12.0834 80.9947 11.8787 80.9358 11.6592C80.877 11.4397 80.8652 11.2102 80.9013 10.9858C80.9373 10.7614 81.0203 10.5472 81.1449 10.3571C81.2696 10.1671 81.4329 10.0055 81.6243 9.88293ZM83.4136 12.3104C84.1442 11.7706 84.2426 11.1175 83.7386 10.4287C83.2346 9.73979 82.5845 9.64734 81.851 10.1871C81.1174 10.7269 81.0189 11.3799 81.5199 12.0599C82.0209 12.7398 82.674 12.8471 83.4076 12.3104H83.4136Z" fill="white"/>
<path d="M81.3118 21.865C81.3118 22.1632 81.3118 22.4376 81.2819 22.7179C81.1649 24.4717 80.6705 26.1796 79.8326 27.7248H58.1945C57.3561 26.1797 56.8608 24.4719 56.7423 22.7179C56.7214 22.4376 56.7124 22.1513 56.7124 21.865C56.687 20.2337 56.9864 18.6136 57.5931 17.0991C58.1998 15.5845 59.1018 14.2058 60.2464 13.0432C61.3911 11.8806 62.7555 10.9573 64.2604 10.3271C65.7653 9.69687 67.3806 9.37231 69.0121 9.37231C70.6436 9.37231 72.2589 9.69687 73.7637 10.3271C75.2686 10.9573 76.6331 11.8806 77.7778 13.0432C78.9224 14.2058 79.8244 15.5845 80.4311 17.0991C81.0378 18.6136 81.3372 20.2337 81.3118 21.865Z" fill="#E1EF1E"/>
<path d="M80.7989 21.8232C80.7989 22.1214 80.7989 22.3869 80.7661 22.6672C80.645 24.4041 80.1355 26.0918 79.2751 27.6055H58.7552C57.8964 26.0911 57.387 24.4038 57.2642 22.6672C57.2433 22.3869 57.2344 22.1065 57.2344 21.8232C57.2344 18.6992 58.4754 15.7031 60.6845 13.494C62.8935 11.285 65.8896 10.0439 69.0137 10.0439C72.1377 10.0439 75.1338 11.285 77.3429 13.494C79.5519 15.7031 80.793 18.6992 80.793 21.8232H80.7989Z" fill="#E1EF1E"/>
<path d="M69.0147 11.7825C67.6997 11.7829 66.3977 12.0424 65.183 12.5463C63.9684 13.0501 62.8649 13.7884 61.9358 14.719C61.0066 15.6495 60.2699 16.7541 59.7679 17.9695C59.2658 19.1849 59.0082 20.4873 59.0098 21.8023C59.0098 22.1005 59.0098 22.3689 59.0426 22.6492C59.1932 24.4426 59.827 26.1615 60.8766 27.6234H61.3328C60.2357 26.18 59.5698 24.4554 59.4124 22.6492C59.3885 22.3719 59.3766 22.0886 59.3766 21.8023C59.3766 19.2461 60.392 16.7946 62.1995 14.9871C64.007 13.1796 66.4585 12.1642 69.0147 12.1642C71.5709 12.1642 74.0224 13.1796 75.8299 14.9871C77.6374 16.7946 78.6529 19.2461 78.6529 21.8023C78.6529 22.1005 78.638 22.3719 78.6141 22.6492C78.4564 24.4548 77.7917 26.1791 76.6966 27.6234H77.1529C78.2015 26.1613 78.8343 24.4423 78.9839 22.6492C79.0077 22.3689 79.0197 22.0886 79.0197 21.8023C79.0212 20.4873 78.7636 19.1849 78.2616 17.9695C77.7595 16.7541 77.0228 15.6495 76.0937 14.719C75.1645 13.7884 74.0611 13.0501 72.8464 12.5463C71.6318 12.0424 70.3297 11.7829 69.0147 11.7825Z" fill="#E1EF1E" stroke="#E1EF1E" stroke-width="0.459614" stroke-miterlimit="10"/>
<path d="M73.2779 23.3889H72.5443V26.1235H71.3276L69.4996 23.3889H66.6189V26.1235H65.4797V23.3889H64.7461V22.3601H65.4797V20.9108H64.7461V19.882H65.4797V17.1504H66.6964L68.5214 19.876H71.4081V17.1504H72.5443V19.876H73.2779V20.9049H72.5443V22.3542H73.2779V23.3889ZM67.1556 19.882L66.6189 19.0768V19.882H67.1556ZM68.8137 22.3601L67.8475 20.9108H66.6189V22.3601H68.8137ZM71.4081 22.3601V20.9108H69.2103L70.1765 22.3601H71.4081ZM71.4081 24.1941V23.3889H70.8683L71.4081 24.1941Z" fill="#E1EF1E"/>
</svg>
