<svg width="38" height="36" viewBox="0 0 38 36" fill="none" xmlns="http://www.w3.org/2000/svg">
<path d="M36.7201 21.605C34.5358 19.2142 30.7596 19.5456 29.0004 22.2577C27.2375 19.541 23.4568 19.2169 21.2752 21.6104C19.431 23.6343 19.6417 26.8153 21.5547 28.7727L28.3537 35.7282C28.7082 36.0906 29.2889 36.0906 29.6435 35.7282L36.4442 28.7727C38.3608 26.8134 38.5689 23.6279 36.7201 21.605Z" fill="#E1EF1E"/>
<path opacity="0.4" d="M14.8327 21H6.49935C6.03852 21 5.66602 20.552 5.66602 20C5.66602 19.448 6.03852 19 6.49935 19H14.8327C15.2935 19 15.666 19.448 15.666 20C15.666 20.552 15.2935 21 14.8327 21Z" fill="#E1EF1E"/>
<path opacity="0.4" fill-rule="evenodd" clip-rule="evenodd" d="M3.88341 0H34.4486C36.223 0 37.666 1.47741 37.666 3.29412V18.1176H36.0573V14H2.27471V24.7059C2.27471 25.6142 2.99621 26.3529 3.88341 26.3529H16.753V28H3.88341C2.10902 28 0.666016 26.5226 0.666016 24.7059V3.29412C0.666016 1.47741 2.10902 0 3.88341 0ZM2.27539 7.4118H36.058V3.29415C36.058 2.3858 35.3365 1.64709 34.4493 1.64709H3.88409C2.99689 1.64709 2.27539 2.3858 2.27539 3.29415V7.4118Z" fill="#E1EF1E"/>
</svg>
