<svg width="18" height="18" viewBox="0 0 18 18" fill="none" xmlns="http://www.w3.org/2000/svg">
<path fill-rule="evenodd" clip-rule="evenodd" d="M0.75 0H17.25C17.6625 0 18 0.3375 18 0.75V17.25C18 17.6625 17.6625 18 17.25 18H0.75C0.3375 18 0 17.6625 0 17.25V0.75C0 0.3375 0.3375 0 0.75 0ZM2.66211 15.3375H5.32461V6.75H2.66211V15.3375ZM4.01211 5.5877C3.14961 5.5877 2.47461 4.9127 2.47461 4.0502C2.47461 3.1877 3.14961 2.5127 4.01211 2.5127C4.87461 2.5127 5.54961 3.1877 5.54961 4.0502C5.54961 4.8752 4.87461 5.5877 4.01211 5.5877ZM12.6742 15.3374H15.2992V10.6124C15.2992 8.2874 14.8117 6.5249 12.1117 6.5249C10.8367 6.5249 9.93672 7.2374 9.59922 7.9124H9.56172V6.7499H7.01172V15.3374H9.67422V11.0999C9.67422 9.9749 9.89922 8.8874 11.2867 8.8874C12.6742 8.8874 12.6742 10.1624 12.6742 11.1749V15.3374Z" fill="#161C2D"/>
</svg>
