<svg width="41" height="42" viewBox="0 0 41 42" fill="none" xmlns="http://www.w3.org/2000/svg">
<path opacity="0.4" d="M10.0635 7.56757C9.46644 7.56757 8.98242 7.19111 8.98242 6.72673V0.840841C8.98242 0.376457 9.46644 0 10.0635 0C10.6606 0 11.1446 0.376457 11.1446 0.840841V6.72673C11.1446 7.19111 10.6606 7.56757 10.0635 7.56757Z" fill="#E1EF1E"/>
<path opacity="0.4" d="M29.5225 7.56757C28.9254 7.56757 28.4414 7.19111 28.4414 6.72673V0.840841C28.4414 0.376457 28.9254 0 29.5225 0C30.1196 0 30.6036 0.376457 30.6036 0.840841V6.72673C30.6036 7.19111 30.1196 7.56757 29.5225 7.56757Z" fill="#E1EF1E"/>
<path opacity="0.4" d="M22.8229 36.0739H2.98755C2.49904 36.0739 2.10303 35.679 2.10303 35.1919V14.9074C2.10303 14.4204 2.49904 14.0255 2.98755 14.0255H36.5993C37.0878 14.0255 37.4839 14.4204 37.4839 14.9074V25.3028C38.1301 25.725 38.7239 26.222 39.2529 26.7836V6.08809C39.2529 5.11393 38.4609 4.32422 37.4839 4.32422H32.1767V7.85196C32.1767 9.31319 30.9887 10.4978 29.5232 10.4978C28.0577 10.4978 26.8696 9.31319 26.8696 7.85196V4.32422H12.7173V7.85196C12.7173 9.31319 11.5292 10.4978 10.0637 10.4978C8.59819 10.4978 7.41015 9.31319 7.41015 7.85196V4.32422H2.10303C1.12601 4.32422 0.333984 5.11393 0.333984 6.08809V36.0739C0.333984 37.048 1.12601 37.8377 2.10303 37.8377H23.5173C23.2281 37.274 22.9955 36.6832 22.8229 36.0739Z" fill="#E1EF1E"/>
<path fill-rule="evenodd" clip-rule="evenodd" d="M40.3334 32.9729C40.3334 37.4508 36.7033 41.081 32.2253 41.081C27.7473 41.081 24.1172 37.4508 24.1172 32.9729C24.1172 28.4949 27.7473 24.8647 32.2253 24.8647C36.7033 24.8647 40.3334 28.4949 40.3334 32.9729ZM32.2253 27.5674C31.7277 27.5674 31.3244 27.9708 31.3244 28.4683V32.9729C31.3244 33.4704 31.7277 33.8738 32.2253 33.8738H36.7298C37.2274 33.8738 37.6307 33.4704 37.6307 32.9729C37.6307 32.4753 37.2274 32.072 36.7298 32.072H33.1262V28.4683C33.1262 27.9708 32.7228 27.5674 32.2253 27.5674Z" fill="#E1EF1E"/>
</svg>
