<svg width="41" height="40" viewBox="0 0 41 40" fill="none" xmlns="http://www.w3.org/2000/svg">
<path opacity="0.4" d="M36.1206 23.6364C35.6185 23.6364 35.2115 24.0434 35.2115 24.5455V38.1819H2.4842V10.9091H7.02965C7.53173 10.9091 7.93874 10.5021 7.93874 10C7.93874 9.49796 7.53173 9.09094 7.02965 9.09094H1.57511C1.07303 9.09094 0.666016 9.49796 0.666016 10V39.0909C0.666016 39.593 1.07303 40 1.57511 40H36.1206C36.6226 40 37.0297 39.593 37.0297 39.0909V24.5455C37.0297 24.0434 36.6226 23.6364 36.1206 23.6364Z" fill="#E1EF1E"/>
<path d="M40.3558 12.9492L25.8104 0.224499C25.5419 -0.0100925 25.1609 -0.0660628 24.8363 0.0813636C24.5116 0.22879 24.3031 0.552386 24.3031 0.908907V7.28309C12.9958 7.57939 7.93945 13.4982 7.93945 26.3584C7.93962 26.7481 8.1883 27.0944 8.55764 27.2191C8.65128 27.2511 8.74958 27.2674 8.84854 27.2673C9.13373 27.2686 9.403 27.136 9.57582 26.9092C12.5995 22.9463 15.4604 20.1087 24.3031 20.0015V26.3638C24.3031 26.7203 24.5116 27.0439 24.8363 27.1914C25.1609 27.3388 25.5419 27.2828 25.8104 27.0482L40.3558 14.3235C40.5534 14.1509 40.6667 13.9014 40.6667 13.6391C40.6667 13.3768 40.5534 13.1273 40.3558 12.9547V12.9492Z" fill="#E1EF1E"/>
</svg>
