<svg width="42" height="36" viewBox="0 0 42 36" fill="none" xmlns="http://www.w3.org/2000/svg">
<path opacity="0.4" d="M39.0397 25.5089L32.1559 22.9242C31.8526 22.8109 31.6347 22.534 31.5895 22.2042L31.2366 19.6519C33.7004 18.2154 35.2271 15.5226 35.2344 12.6005V7.26543C35.2316 4.82211 33.464 2.7651 31.1154 2.47214L30.3547 0.900771C29.99 0.167143 29.1586 -0.178021 28.4037 0.0907884L23.7097 1.82325C22.2561 2.41492 21.0577 3.52778 20.334 4.95788C22.6026 6.90721 23.9122 9.79919 23.9066 12.8471V14.4005C24.1113 16.7494 24.8583 19.0135 26.085 21.0027C26.5013 21.6475 26.6293 22.4459 26.4364 23.1948C26.2435 23.9437 25.7483 24.5709 25.0768 24.9167C24.797 25.0541 24.5078 25.1702 24.2116 25.2641L25.4123 25.6358C27.6287 26.3137 29.1455 28.4216 29.1348 30.8089V35.1C29.1319 35.4073 29.0777 35.7118 28.9745 36H40.4626C40.9439 36 41.334 35.5971 41.334 35.1V28.8902C41.3306 27.3779 40.4148 26.0282 39.0397 25.5089Z" fill="#E1EF1E"/>
<path d="M26.434 36H1.23402C0.736963 36 0.33402 35.5907 0.33402 35.0857V30.7264C0.326926 29.1087 1.37267 27.6809 2.89991 27.2229L8.8732 25.4025C9.20812 25.2994 9.45384 25.0084 9.5032 24.6565L9.649 23.6279C5.79251 24.2231 3.62981 23.1534 3.52901 23.104C3.29786 22.9868 3.12744 22.7743 3.06114 22.5206C2.99484 22.267 3.03905 21.9966 3.18251 21.7783C4.65139 19.46 5.52832 16.8063 5.73401 14.0572V12.2286C5.734 9.95097 6.66329 7.77522 8.30064 6.2193C9.93799 4.66338 12.1369 3.86648 14.374 4.01832C18.6902 4.38387 21.9924 8.07952 21.934 12.4791V14.0572C22.1388 16.806 23.0148 19.4597 24.4828 21.7783C24.6262 21.9966 24.6704 22.267 24.6041 22.5206C24.5378 22.7743 24.3674 22.9868 24.1363 23.104C24.0373 23.1534 21.8746 24.2222 18.0163 23.6279L18.1621 24.6565C18.2114 25.0084 18.4571 25.2994 18.7921 25.4025L24.7681 27.2229C26.2953 27.6809 27.341 29.1087 27.3339 30.7264V35.0857C27.3339 35.5907 26.931 36 26.434 36Z" fill="#E1EF1E"/>
</svg>
